<?xml version="1.0" encoding="utf-8"?>
<svg width="16" height="16" viewBox="0 0 16 16" fill="none" xmlns="http://www.w3.org/2000/svg">
  <g>
    <rect width="16" height="16" />
    <g transform="translate(3 1)">
      <g>
        <path d="M2.30095 0.255586C3.50477 -0.220738 4.8711 -0.0224226 5.88956 0.776466C7.18729 1.79443 7.63811 3.5571 6.98836 5.07252C6.3386 6.58795 4.75063 7.47751 3.11808 7.24052C1.48551 7.00359 0.216348 5.69932 0.0247952 4.06175C-0.166802 2.4242 0.767151 0.862543 2.30095 0.255586ZM5.1408 0.857721C5.0894 1.04077 4.92669 1.35056 4.82616 1.51714C4.67811 1.82251 4.26781 2.27785 3.98882 2.46621C4.0369 2.54653 4.34934 3.00512 4.40726 3.02255C4.50715 2.98945 4.70844 2.84625 4.80816 2.78512C5.31786 2.47273 5.84688 2.25084 6.40334 2.03329C6.37318 1.99869 6.23438 1.78496 6.20022 1.7351C6.17953 1.71652 6.12932 1.6533 6.10975 1.62763C5.93126 1.39293 5.71397 1.22632 5.4874 1.03943C5.39121 0.98648 5.29392 0.904644 5.18658 0.857184C5.15723 0.844192 5.17986 0.845353 5.1408 0.857721ZM2.72752 0.578463C2.55245 0.636816 2.38663 0.722447 2.21188 0.773118C2.20084 0.776288 2.15425 0.753786 2.14143 0.747581C2.18217 0.811603 2.70063 1.15613 2.81123 1.25203C3.04041 1.45062 3.51942 1.87676 3.68074 2.11369C4.05745 1.80398 4.20241 1.62406 4.47263 1.21627C4.48477 1.18332 4.56589 1.03648 4.58685 0.994247C4.64359 0.879956 4.69115 0.774414 4.74258 0.657397C4.54044 0.575606 4.28277 0.501227 4.06414 0.483101C3.84606 0.450107 3.44241 0.454795 3.22449 0.473099C3.11742 0.48837 3.03058 0.501271 2.92658 0.530425C2.88945 0.537926 2.85721 0.545425 2.81929 0.548326C2.81929 0.548326 2.72752 0.578463 2.72752 0.578463ZM0.831121 5.24559C0.855422 5.27923 0.884545 5.3363 0.90791 5.37403C1.02249 5.55904 1.16218 5.71745 1.30205 5.88375C1.45929 5.71449 1.59469 5.53351 1.74631 5.36C2.42094 4.58816 3.17452 3.87644 4.01529 3.28833C3.94488 3.20907 3.83332 3.06321 3.77093 2.97641C3.70767 2.89879 3.64315 2.8171 3.57641 2.74285C3.36808 2.89334 3.03611 3.01063 2.79211 3.08134C2.21389 3.24899 1.6722 3.30658 1.07199 3.27282C0.868285 3.26134 0.664584 3.23175 0.466151 3.218C0.431219 3.39414 0.431307 3.87082 0.449266 4.05274C0.487548 4.4403 0.639923 4.90803 0.831121 5.24559ZM1.71705 1.12394C1.30455 1.3507 0.876956 1.96399 0.695723 2.3975C0.662532 2.48121 0.602047 2.66939 0.554693 2.72886C1.22106 2.84825 2.11798 2.79912 2.76143 2.58265C2.95811 2.51648 3.10334 2.44568 3.28384 2.35094C3.21756 2.29116 3.12422 2.20749 3.0689 2.14012C2.97674 2.06673 2.85641 1.92515 2.76041 1.83988C2.56139 1.66313 2.37225 1.51718 2.15627 1.36445C2.12522 1.35043 2.06768 1.30949 2.03677 1.289C1.93116 1.22832 1.83137 1.16622 1.71705 1.12394ZM6.8274 3.30849C6.80288 3.13479 6.70729 2.60261 6.60518 2.47501C6.56014 2.508 6.51877 2.5205 6.46633 2.53814C6.20348 2.62654 5.95189 2.74386 5.69912 2.85712C5.65605 2.87641 5.61027 2.90263 5.56685 2.91858C5.36789 3.01619 5.15904 3.14178 4.9646 3.24964C4.88392 3.29444 4.74918 3.36118 4.68263 3.41762C4.67633 3.46912 4.97773 3.9477 5.0203 4.05471C5.15548 3.96759 5.30992 3.94751 5.46666 3.92233C5.92732 3.84822 6.40951 3.97644 6.83326 4.15592C6.83901 3.83153 6.83732 3.62753 6.8274 3.30849ZM3.86781 6.86458C4.13329 6.85331 4.09907 6.87132 4.37447 6.80225C4.59597 6.73581 5.22542 6.54589 5.35345 6.3674C5.39929 6.15501 4.96545 5.00526 4.86427 4.78869C4.84921 4.75644 4.84756 4.71386 4.83888 4.69345C4.37359 5.11321 4.0837 5.77638 3.96123 6.38079C3.92888 6.54038 3.91704 6.71729 3.86781 6.86458ZM3.85356 4C3.73893 4.10762 3.60592 4.19351 3.48614 4.29945C3.20932 4.5443 2.94271 4.79882 2.67267 5.05096C2.6607 5.06923 2.33665 5.41658 2.31485 5.4323C2.12423 5.56926 1.79147 6.10268 1.63526 6.19167C1.73644 6.25836 1.82717 6.33118 1.93152 6.39732C2.28862 6.62362 2.68151 6.7683 3.09619 6.84537C3.19444 6.86362 3.34025 6.86984 3.44764 6.88269C3.48762 6.1263 3.7183 5.32863 4.18756 4.72288C4.32101 4.55068 4.45649 4.42994 4.61378 4.28373C4.51011 4.13153 4.38101 3.86326 4.26258 3.67795C4.19252 3.75397 3.94573 3.93425 3.85356 4ZM6.46951 5.22137C6.56926 4.99151 6.62899 4.85016 6.70997 4.60973C6.16323 4.37597 5.81011 4.30118 5.23343 4.47186C5.40932 4.84896 5.548 5.22214 5.66586 5.62115C5.70543 5.75499 5.75907 5.91499 5.78315 6.05099C5.78315 6.05099 5.79151 6.04112 5.79151 6.04112C5.93701 5.87299 6.12989 5.72784 6.26164 5.53699C6.28888 5.49751 6.45797 5.22718 6.46951 5.22137Z" fill="#DE9E36" transform="translate(1.441 1.453)" />
        <path d="M0.159523 0.255586C1.36334 -0.220738 2.72967 -0.0224226 3.74814 0.776466C3.74929 0.81897 3.74564 0.834238 3.77033 0.868704C3.70463 0.865178 3.66879 0.775841 3.62257 0.772806C3.62257 0.772806 3.61153 0.78986 3.61153 0.78986C3.61153 0.78986 3.63507 0.836871 3.63507 0.836871C3.60699 0.89817 3.50611 0.867143 3.4671 0.908616C3.4671 0.908616 3.47386 0.927011 3.47386 0.927011C3.47386 0.927011 3.51942 0.937636 3.51942 0.937636L3.53468 0.973263C3.53468 0.973263 3.49175 0.992061 3.49175 0.992061C3.49175 0.992061 3.48622 1.00898 3.48622 1.00898C3.58512 1.12957 3.7089 1.04546 3.72978 1.21846C3.72956 1.21667 3.8143 1.30324 3.83175 1.34539C3.9363 1.45798 4.0594 1.58397 4.13192 1.71938C4.13192 1.71938 4.11373 1.74353 4.11373 1.74353C4.08841 1.74211 4.08362 1.74104 4.05879 1.7351C4.03811 1.71652 3.98789 1.65331 3.96833 1.62764C3.78981 1.39293 3.57252 1.22632 3.34594 1.03943C3.24978 0.98648 3.15249 0.904644 3.04515 0.857186C3.01578 0.844195 3.03844 0.845353 2.99934 0.857721C2.94797 1.04077 2.78523 1.35056 2.68473 1.51714C2.65663 1.41932 2.77447 1.35342 2.75342 1.27878C2.62692 1.31512 2.62339 1.30681 2.52757 1.38842C2.5164 1.3603 2.5114 1.34324 2.50305 1.31458C2.43421 1.28101 2.34821 1.34981 2.31958 1.35128C2.31793 1.29962 2.32409 1.26694 2.33119 1.21627C2.34334 1.18332 2.42447 1.03648 2.44542 0.994247C2.50215 0.879956 2.54973 0.774414 2.60114 0.657397C2.399 0.575606 2.14134 0.501227 1.92272 0.483099C1.70463 0.450107 1.30098 0.454795 1.08307 0.473099C0.975989 0.488367 0.889145 0.501271 0.785151 0.530425C0.748027 0.537923 0.715775 0.545425 0.677849 0.548326C0.677849 0.548326 0.586093 0.578463 0.586093 0.578463C0.411025 0.636814 0.245203 0.722444 0.0704472 0.773118C0.0594134 0.776288 0.0128207 0.753786 0 0.747581C0.0384178 0.714321 0.0672309 0.698693 0.110294 0.672666C0.125974 0.638019 0.172879 0.557836 0.170423 0.524666C0.145764 0.491849 0.112706 0.488414 0.0679011 0.470644C0.0425274 0.430373 0.0787113 0.461312 0.0826871 0.392915C0.0687499 0.386575 0.058073 0.381888 0.0436444 0.376485C0.0436444 0.376485 0.0322981 0.372378 0.0322981 0.372378C0.0381942 0.347644 0.127181 0.296348 0.159523 0.255586Z" fill="#DE9E36" fill-rule="evenodd" transform="translate(3.582 1.453)" />
        <path d="M0.0344853 0.0787101C0.0430179 0.0712991 0.0383286 0.076612 0.045074 0.0602269C0.045074 0.0602269 0 0.0287967 0 0.0287967C0 0.0287967 0.00451136 0.00812578 0.00451136 0.00812578C0.00451136 0.00812578 0.0205488 0 0.0205488 0C0.049675 0.0262966 0.0600834 0.0337527 0.0928278 0.0560753C0.0928278 0.0560753 0.111768 0.0445561 0.111768 0.0445561C0.253869 0.127955 0.396907 0.270821 0.52029 0.384668C0.624822 0.497263 0.747937 0.623252 0.820441 0.758663C0.820441 0.758663 0.80226 0.782816 0.80226 0.782816C0.776932 0.781386 0.772151 0.780318 0.747313 0.774378C0.72663 0.755805 0.676419 0.692586 0.656852 0.666915C0.478343 0.432214 0.261061 0.265597 0.0344853 0.0787101Z" fill="#DE9E36" fill-rule="evenodd" transform="translate(6.894 2.414)" />
        <path d="M0 6.60419e-05C0.147194 -0.00238919 0.792255 0.063552 0.850551 0.203471C0.841573 0.233473 0.841435 0.231331 0.819638 0.254412C0.617499 0.172621 0.359833 0.0982419 0.141208 0.0801157C0.0706267 -0.0229707 0.0465488 0.0428811 0 6.60419e-05Z" fill="#DE9E36" fill-rule="evenodd" transform="translate(5.364 1.856)" />
        <path d="M0 0.0128925C0.150678 -0.00608206 0.593775 -0.000456452 0.753343 0.00673127C0.799893 0.0495466 0.82397 -0.0163052 0.894551 0.0867808C0.676463 0.0537879 0.27281 0.0584754 0.0549011 0.0767802C0.0549011 0.0767802 0.0366755 0.0752627 0.0366755 0.0752627C0.00598574 0.0530738 0.0150099 0.0567348 0 0.0128925Z" fill="#DE9E36" fill-rule="evenodd" transform="translate(4.61 1.849)" />
        <path d="M0.110294 0.156036C0.256728 0.0893806 0.356704 0.0498244 0.506712 0C0.53231 0.0210727 0.558307 0.0440651 0.586093 0.061834C0.411025 0.120186 0.245203 0.205816 0.0704472 0.256489C0.0594134 0.259659 0.0128207 0.237157 0 0.230952C0.0384178 0.19769 0.0672309 0.182065 0.110294 0.156036Z" fill="#DE9E36" fill-rule="evenodd" transform="translate(3.582 1.97)" />
        <path d="M0.169261 0.0614769C0.286792 0.036297 0.4016 0.00964355 0.521452 0C0.536463 0.0438424 0.527439 0.0401814 0.558129 0.0623698C0.558129 0.0623698 0.576354 0.063888 0.576354 0.063888C0.469277 0.0791572 0.382436 0.0920589 0.278439 0.121213C0.241316 0.128713 0.209064 0.136214 0.171137 0.139116C0.171137 0.139116 0.0793815 0.169251 0.0793815 0.169251C0.0515957 0.151483 0.0255966 0.12849 0 0.107418C0 0.107418 0.0756741 0.0846038 0.0756741 0.0846038C0.0974288 0.0809877 0.145897 0.0673701 0.169261 0.0614769Z" fill="#DE9E36" fill-rule="evenodd" transform="translate(4.089 1.862)" />
        <path d="M0.0756741 0C0.130844 0.0096879 0.130397 0.0146881 0.171137 0.054512C0.171137 0.054512 0.0793815 0.0846479 0.0793815 0.0846479C0.0515957 0.066879 0.0255966 0.0438865 0 0.0228139C0 0.0228139 0.0756741 0 0.0756741 0Z" fill="#DE9E36" fill-rule="evenodd" transform="translate(4.089 1.947)" />
        <path d="M0.0109873 0.0789399C-0.000718117 0.0442057 -0.00424623 0.0431342 0.00620604 0.00728416C0.0751343 -0.0416923 0.372828 0.170285 0.434877 0.226494C0.434877 0.226494 0.415937 0.238013 0.415937 0.238013C0.383193 0.21569 0.372784 0.208234 0.343658 0.181937C0.343658 0.181937 0.32762 0.190063 0.32762 0.190063C0.32762 0.190063 0.323107 0.210734 0.323107 0.210734C0.323107 0.210734 0.368181 0.242164 0.368181 0.242164C0.361436 0.258549 0.366127 0.253236 0.357595 0.260648C0.261416 0.207698 0.164121 0.125862 0.0567751 0.0784037C0.0274253 0.065412 0.0500746 0.0665729 0.0109873 0.0789399Z" fill="#DE9E36" fill-rule="evenodd" transform="translate(6.571 2.232)" />
        <path d="M0.0731287 0C0.136875 0.0936663 0.241497 0.202334 0.203124 0.313904C0.17297 0.279301 0.0341749 0.0655842 0 0.0157149C0.024837 0.0216532 0.0296187 0.0227242 0.0549469 0.0241532C0.0549469 0.0241532 0.0731287 0 0.0731287 0Z" fill="#DE9E36" fill-rule="evenodd" transform="translate(7.641 3.172)" />
        <path d="M0.0599957 0.454271C0.172166 0.460655 0.291975 0.452394 0.40111 0.464762C0.8036 0.510301 1.18264 0.538605 1.58527 0.466504C1.67492 0.45043 1.79491 0.464227 1.88783 0.444671C1.97266 0.426814 2.05959 0.403063 2.14433 0.383731C2.51069 0.340425 2.82364 0.149162 3.15699 0.00754642C3.27211 -0.0413852 3.39299 0.160145 3.41296 0.25216C3.3497 0.174521 3.28521 0.0928192 3.21847 0.0185738C3.01011 0.169075 2.67816 0.286359 2.43417 0.357077C1.85593 0.524721 1.31424 0.582315 0.714033 0.548562C0.510332 0.537087 0.306628 0.507488 0.108196 0.493737C0.073263 0.669863 0.0733523 1.14654 0.0913101 1.32848C0.129594 1.71604 0.28197 2.18375 0.473165 2.52132C0.441312 2.50145 0.394899 2.43587 0.374663 2.40274C0.140003 2.02772 0.0687513 1.64376 0.0226945 1.21494C-0.0135345 0.877734 -0.0100501 0.780496 0.0599957 0.454271Z" fill="#DE9E36" fill-rule="evenodd" transform="translate(1.799 4.177)" />
        <path d="M1.05372 0C1.15615 0.0708528 1.38098 0.14233 1.41341 0.263767C1.30781 0.203093 1.20801 0.140991 1.0937 0.0987115C0.6812 0.325466 0.253601 0.938761 0.0723679 1.37227C0.0495858 1.36723 0.037837 1.34879 0 1.33865C0.0449398 1.18003 0.356436 0.682677 0.471375 0.54691C0.587567 0.409578 0.894732 0.0930858 1.05372 0Z" fill="#DE9E36" fill-rule="evenodd" transform="translate(2.064 2.478)" />
        <path d="M0 0.119049C0.119318 -0.0202904 0.691028 -0.0183706 0.853677 0.0292664C1.00306 0.073019 1.42404 0.167623 1.52496 0.258343C1.58406 0.370002 1.33685 0.824674 1.24388 0.894142C1.34364 0.66426 1.40336 0.522912 1.48435 0.282495C0.937614 0.0487318 0.584485 -0.0260496 0.00781727 0.14463C0.00781727 0.14463 0 0.119049 0 0.119049Z" fill="#DE9E36" fill-rule="evenodd" transform="translate(6.666 5.78)" />
        <path d="M0 1.05096C0.0019207 1.04533 0.00964928 1.02162 0.0121512 1.01881C0.256773 0.743932 0.839293 0.108712 1.1809 0C1.06627 0.107596 0.933239 0.193494 0.813471 0.299438C0.536641 0.544274 0.270041 0.7988 0 1.05096Z" fill="#DE9E36" fill-rule="evenodd" transform="translate(4.114 5.453)" />
        <path d="M0.0440025 0C0.160374 0.115275 0.229121 0.389266 0.240782 0.547713C0.241586 0.647496 0.245651 0.77469 0.222242 0.869696C0.197719 0.695981 0.10212 0.163804 0 0.0362072C0 0.0362072 0.00580788 0.0171885 0.00580788 0.0171885C0.00580788 0.0171885 0.0440025 0 0.0440025 0Z" fill="#DE9E36" fill-rule="evenodd" transform="translate(8.046 3.892)" />
        <path d="M0.0185394 0C0.0482006 0.176842 0.0520878 0.406187 0.0859489 0.587134C0.101361 0.669641 0.0518646 1.10873 0.0058527 1.1694C0.0116148 0.845008 0.00991821 0.641022 0 0.321984C0.0234089 0.226978 0.0193443 0.0997829 0.0185394 0Z" fill="#DE9E36" fill-rule="evenodd" transform="translate(8.268 4.44)" />
        <path d="M0 0.479792C0.00183105 0.477469 0.00370789 0.475192 0.00553894 0.472872C0.220812 0.32505 0.840989 -0.00358701 1.08231 2.95639e-05C1.08231 2.95639e-05 1.04411 0.0172181 1.04411 0.0172181C1.04411 0.0172181 1.0383 0.0362368 1.0383 0.0362368C0.993274 0.0692306 0.95191 0.0817311 0.899463 0.0993655C0.636617 0.187765 0.385025 0.305093 0.132273 0.418359C0.0892081 0.437647 0.0434203 0.463852 0 0.479792Z" fill="#DE9E36" fill-rule="evenodd" transform="translate(7.008 3.892)" />
        <path d="M0 0C0.291438 0.0868361 0.488532 0.302564 0.687767 0.517354C0.753433 0.588162 0.87217 0.690534 0.912644 0.775674C0.820485 0.702277 0.70014 0.560704 0.60414 0.47543C0.405129 0.29868 0.215988 0.152733 0 0Z" fill="#DE9E36" fill-rule="evenodd" transform="translate(3.597 2.818)" />
        <path d="M0.103832 0C0.141669 0.0101347 0.153417 0.028573 0.1762 0.0336185C0.143009 0.117329 0.0825232 0.30551 0.0351712 0.364978C0.0351712 0.364978 0.0169456 0.365022 0.0169456 0.365022C0.0169456 0.365022 0.000774622 0.344216 0.000774622 0.344216C-0.00860679 0.258364 0.0696582 0.0879967 0.103832 0Z" fill="#DE9E36" fill-rule="evenodd" transform="translate(1.96 3.817)" />
        <path d="M0.0149717 7.16132C0.0122023 6.88214 0.0222087 6.6177 0.0240402 6.34014C0.0240402 6.34014 0.0217614 4.94499 0.0217614 4.94499C0.0201535 4.62135 0.0174737 4.29573 0.0143909 3.97041C0.0130954 3.82932 -0.0293431 3.25085 0.0379329 3.15247C0.214744 2.89521 0.388337 2.61126 0.594765 2.37857C0.652748 2.34901 0.727129 2.32352 0.790874 2.31049C1.84785 2.09476 2.78238 1.35761 3.34611 0.452915C3.39373 0.376482 3.55038 -0.00385427 3.63592 2.95639e-05C3.68017 0.0578008 3.64907 0.98683 3.66458 1.12711C3.6731 1.20444 3.66912 1.54642 3.65937 1.63093C3.65866 1.68942 3.66156 1.80978 3.63674 1.85702C3.51732 2.08386 3.3494 2.32763 3.20932 2.5434C2.88696 3.04 2.56211 3.55466 2.2126 4.03176C2.18486 4.09337 2.01836 4.33058 1.97351 4.3957C1.78656 4.66808 1.59765 4.93913 1.40676 5.2088C1.40676 5.2088 0.531913 6.44913 0.531913 6.44913C0.406386 6.62762 0.149121 7.01318 0.0149717 7.16132Z" fill="#DE9E36" fill-rule="evenodd" transform="translate(5.242 6.806)" />
        <path d="M0 2.37827C0.004601 2.31193 0.112036 2.03887 0.151393 1.97548C0.237385 1.8369 0.341471 1.69296 0.431754 1.55349C0.431754 1.55349 1.08217 0.545436 1.08217 0.545436C1.15316 0.435786 1.23857 0.310644 1.305 0.198851C1.3167 0.179118 1.3553 0.0310726 1.36347 0C1.38567 0.0387516 1.39885 0.0743341 1.42615 0.117552C1.44634 0.096837 1.45594 0.0354919 1.46461 0.0018301C1.46389 0.0603151 1.4668 0.180681 1.44196 0.227916C1.32255 0.454762 1.15463 0.698526 1.01454 0.914299C0.692189 1.41089 0.367334 1.92556 0.0178232 2.40265C0.0178232 2.40265 0 2.37827 0 2.37827Z" fill="#DE9E36" fill-rule="evenodd" transform="translate(7.437 8.436)" />
        <path d="M0.165329 0.00188065C0.508721 -0.0115585 0.787293 0.0517063 1.10978 0.0434475C1.162 0.114521 1.54971 0.655672 1.5544 0.696033C1.52045 0.675809 1.49735 0.632589 1.47457 0.598436C1.36561 0.444053 1.20623 0.227877 1.09272 0.0812607C0.985146 0.0688047 0.870921 0.0728674 0.763888 0.0632696C0.569477 0.0458565 0.388107 0.0196943 0.191329 0.0331326C0.129504 0.0373745 0.0480666 0.0992537 0.000893116 0.0946989C0.000893116 0.0946989 0 0.0776453 0 0.0776453C0.0452971 0.0333109 0.10422 0.0142469 0.165329 0.00188065Z" fill="#DE9E36" fill-rule="evenodd" transform="translate(5.39 10.704)" />
        <path d="M0.444575 0.0100002C0.171498 0.272964 0.14456 0.413685 0.100872 0.76277C0.078938 0.944299 0.0594168 1.12614 0.0422177 1.30816C0.036365 1.36535 0.0285935 1.48634 2.86102e-06 1.53067C-0.000622749 1.17159 0.100559 0.66665 0.14398 0.303991C0.149073 0.261445 0.37346 0.0419216 0.418622 0C0.418622 0 0.444575 0.0100002 0.444575 0.0100002Z" fill="#DE9E36" fill-rule="evenodd" transform="translate(6.494 9.204)" />
        <path d="M0 0.0524139C0.0323873 0.0154457 0.0241685 0.0135717 0.0641489 0C0.0617371 0.0313845 0.0513287 0.032546 0.0259542 0.0624142C0.0259542 0.0624142 0 0.0524139 0 0.0524139Z" fill="#DE9E36" fill-rule="evenodd" transform="translate(6.912 9.151)" />
        <path d="M0.041589 0C0.0838928 0.00281191 0.438005 0.416008 0.50269 0.476592C0.609501 0.576687 0.730159 0.682005 0.841391 0.777592C1.01834 0.894786 1.18661 1.02328 1.37817 1.12105C1.62279 1.24584 1.85727 1.35499 2.12526 1.43138C2.24417 1.46527 2.45967 1.50898 2.57537 1.57273C2.77027 1.7977 3.06849 2.1725 3.15118 2.45564C3.18036 2.55556 3.16271 2.84704 3.16 2.95006C3.15457 3.14863 3.15079 3.34732 3.14847 3.54595C3.14408 4.00458 3.1523 4.4771 3.15266 4.93808C3.15033 5.27211 3.15512 5.60614 3.16696 5.94C3.17115 6.08315 3.1691 6.21882 3.18019 6.36195C2.72913 5.75504 2.28751 5.14112 1.85548 4.52049C1.66894 4.25436 1.47184 3.95025 1.28176 3.69334C1.10857 3.47748 0.0623162 1.92539 0.0292147 1.79234C-0.0168415 1.60733 0.00196493 0.982112 0.0157688 0.774378C0.000759125 0.563116 0.0222462 0.2514 0.0215313 0.0294213C0.0215313 0.0294213 0.041589 0 0.041589 0Z" fill="#DE9E36" fill-rule="evenodd" transform="translate(1.759 7.638)" />
        <path d="M0.0184039 0.108266C0.0303317 0.0657187 0.0326543 0.0438871 0.0374789 0C0.0375682 0.119652 0.0299299 0.943765 0.0498976 1.00667C0.0712504 1.00462 0.0603513 1.0081 0.0814803 0.992918C0.0814803 0.992918 0.100645 1.0073 0.100645 1.0073C0.104754 0.734466 0.118156 0.460074 0.116727 0.188182C0.116727 0.188182 0.122578 0.183271 0.122578 0.183271C0.134997 1.1202 -0.0193437 0.957962 0.588819 1.76122C0.588819 1.76122 0.59315 1.76828 0.59315 1.76828C0.694734 1.929 1.36928 2.90285 1.28176 3.03625C1.10857 2.82038 0.0623162 1.26829 0.0292147 1.13525C-0.0168415 0.950238 0.00196493 0.325019 0.0157688 0.117285C0.0157688 0.117285 0.0184039 0.108266 0.0184039 0.108266Z" fill="#DE9E36" fill-rule="evenodd" transform="translate(1.759 8.295)" />
        <path d="M0 0.0237513C0.00955939 0.0158482 0.0190744 0.00790215 0.0286343 0C0.482857 0.00513363 1.149 -0.00772381 1.58044 0.00888443C1.67581 0.0125895 2.35737 0.516907 2.41518 0.575614C2.41518 0.575614 2.41795 0.59151 2.41795 0.59151C2.33821 0.58834 1.75202 0.0509853 1.5087 0.0328588C1.01061 -0.00424194 0.493578 0.051342 0.00433302 0.0308056C0.00433302 0.0308056 0 0.0237513 0 0.0237513Z" fill="#DE9E36" fill-rule="evenodd" transform="translate(2.348 10.033)" />
        <path d="M0.0200578 0C0.0623616 0.00281191 0.416474 0.416008 0.481159 0.476592C0.58797 0.576688 0.708627 0.682005 0.81986 0.777592C0.636929 0.753664 0.13616 0.199388 0 0.0294213C0 0.0294213 0.0200578 0 0.0200578 0Z" fill="#DE9E36" fill-rule="evenodd" transform="translate(1.781 7.638)" />
        <path d="M1.40555 0.0142945C1.44245 -0.00334072 1.42512 -0.00325155 1.45884 0.00692785C1.48775 0.0583152 1.50579 0.1093 1.50744 0.169751C1.51316 0.378915 1.51209 0.59491 1.50758 0.805682C1.50213 1.06181 1.5263 1.36174 1.48958 1.61073C1.48296 1.65533 1.37915 1.85847 1.35435 1.91026C1.30446 2.01522 1.26014 2.12277 1.22164 2.23242C0.926622 3.06485 0.952488 3.59156 1.05291 4.43882C1.08253 4.54671 1.11219 4.65485 1.14399 4.76208C1.17129 4.85405 1.20873 4.9386 1.22525 5.03345C1.26211 5.1031 1.45603 5.5186 1.46099 5.57236C1.48703 5.85488 1.47006 6.18973 1.46429 6.47781C1.45978 6.70452 1.51231 7.13044 1.45732 7.33082C1.43789 7.35027 1.43861 7.3529 1.40573 7.34857C1.36905 7.27304 1.31062 7.22214 1.27006 7.14411C1.21109 7.08101 0.882576 6.51943 0.816507 6.40438C0.611195 6.03556 0.402937 5.62575 0.268653 5.22699C-0.272858 3.61885 0.0143814 1.80887 1.03879 0.454008C1.12255 0.343244 1.27426 0.119792 1.39353 0.0530913C1.39353 0.0530913 1.40555 0.0142945 1.40555 0.0142945Z" fill="#DE9E36" fill-rule="evenodd" transform="translate(0 1.549)" />
        <path d="M0.532329 0.0142945C0.569227 -0.00334072 0.551896 -0.00325155 0.585622 0.00692785C0.614526 0.0583152 0.632573 0.1093 0.634225 0.169751C0.639942 0.378915 0.638871 0.59491 0.634359 0.805682C0.628909 1.06181 0.653077 1.36174 0.616356 1.61073C0.609745 1.65533 0.505929 1.85847 0.481134 1.91026C0.431236 2.01522 0.386923 2.12277 0.348416 2.23242C0.0534035 3.06485 0.0792682 3.59156 0.17969 4.43882C0.151368 4.43964 0.13341 4.43636 0.11246 4.4543C0.0806531 4.30082 0.0384832 4.11315 0.0215076 3.95973C-0.0443384 3.36584 0.043129 2.74638 0.254783 2.18912C0.295479 2.08139 0.341 1.97553 0.391255 1.87186C0.429986 1.79186 0.507581 1.6523 0.524512 1.57019C0.547471 1.48756 0.5464 0.139436 0.532329 0.0142945Z" fill="#DE9E36" fill-rule="evenodd" transform="translate(0.873 1.549)" />
        <path d="M0 0.015492C0.0209507 -0.00245619 0.0389085 0.000848293 0.0672303 0C0.0968481 0.107908 0.12651 0.21604 0.158316 0.323279C0.185611 0.415249 0.223046 0.499808 0.239574 0.594636C0.276427 0.664282 0.470348 1.0798 0.475307 1.13355C0.50135 1.41607 0.484375 1.75091 0.478613 2.03901C0.474101 2.26572 0.526635 2.69164 0.471644 2.892C0.452211 2.91148 0.452926 2.91411 0.420049 2.90978C0.383372 2.83425 0.324942 2.78334 0.284381 2.7053C0.284381 2.7053 0.30283 2.70445 0.30283 2.70445C0.321457 2.72561 0.333296 2.73763 0.3538 2.75696C0.365279 2.7316 0.309529 2.51422 0.309038 2.44524C0.307296 2.2109 0.289427 1.1882 0.364698 1.01725C0.309441 0.875546 0.237028 0.717411 0.177837 0.573562C0.0961331 0.369576 0.0567775 0.229121 0 0.015492Z" fill="#DE9E36" fill-rule="evenodd" transform="translate(0.986 5.988)" />
        <path d="M0.0803194 0C0.18101 0.250864 0.07956 0.820808 0.103951 1.10551C0.116191 1.24825 0.10614 1.41192 0.120926 1.55652C0.12374 1.63943 0.149248 1.82065 0.135668 1.89253C0.0989921 1.81699 0.0405613 1.76609 0 1.68805C0 1.68805 0.0184491 1.6872 0.0184491 1.6872C0.0370775 1.70836 0.0489156 1.72038 0.06942 1.7397C0.0809 1.71434 0.0251496 1.49697 0.0246589 1.42799C0.0229166 1.19365 0.00504756 0.170949 0.0803194 0Z" fill="#DE9E36" fill-rule="evenodd" transform="translate(1.27 7.005)" />
        <path d="M0.0984088 0C0.112481 0.125142 0.113553 1.47326 0.0905919 1.5559C0.0905919 1.5559 0.0860795 1.49183 0.0860795 1.49183C0.0697746 1.49554 0.0795132 1.49402 0.0567302 1.49478C-0.0115725 1.46054 0.000533342 1.3712 0.00129271 1.30459C0.00522375 0.947646 0.00687671 0.589501 0.0245664 0.233005C0.028096 0.161394 0.0792447 0.0986668 0.0863924 0.0387967C0.0863924 0.0387967 0.0984088 0 0.0984088 0Z" fill="#DE9E36" fill-rule="evenodd" transform="translate(1.307 1.563)" />
        <path d="M0.106095 0.638326C0.173014 0.517918 0.695583 0.146554 0.830403 0.0386996C0.893882 -0.0120983 0.924036 -0.00272241 0.997386 0.0102514C1.21369 0.0684248 1.56575 0.249775 1.76279 0.358175C2.59664 0.816954 3.30003 1.52838 3.76016 2.35986C3.82721 2.48107 3.91216 2.62519 3.96595 2.75534C3.89806 2.94227 3.77584 3.09038 3.70674 3.24501C3.61699 3.40238 3.5086 3.63178 3.41367 3.76808C3.41367 3.76808 3.36044 3.85822 3.36044 3.85822C3.34329 3.90356 3.35249 3.90164 3.31986 3.92263C3.29789 3.90644 3.29334 3.89852 3.2857 3.87085C3.22194 3.63948 3.15723 3.40786 3.06159 3.18674C2.84625 2.68997 2.53141 2.24258 2.13647 1.87211C1.69002 1.44775 1.15566 1.1267 0.571219 0.931781C0.462129 0.89526 0.0167966 0.806997 0 0.718553C0.0283217 0.680381 0.0282788 0.690159 0.0816598 0.669891C0.0816598 0.669891 0.106095 0.638326 0.106095 0.638326Z" fill="#DE9E36" fill-rule="evenodd" transform="translate(5.779 0.284)" />
        <path d="M0.0816598 0C0.228899 0.0402704 0.46977 0.0992471 0.603562 0.150143C1.07583 0.32926 1.51469 0.544005 1.90074 0.874384C2.0352 0.989436 2.17489 1.08431 2.29693 1.21874C2.52873 1.47411 2.76688 1.7764 2.94058 2.07232C3.08896 2.32514 3.20564 2.61994 3.29893 2.89625C3.32652 2.98353 3.33189 3.12926 3.36044 3.18833C3.34329 3.23367 3.35247 3.23175 3.31986 3.25274C3.29789 3.23655 3.29334 3.22863 3.2857 3.20096C3.22195 2.96959 3.15723 2.73798 3.06159 2.51685C2.84625 2.02008 2.53141 1.57269 2.13647 1.20222C1.69002 0.77786 1.15566 0.456814 0.571219 0.261891C0.462129 0.225371 0.0167966 0.137107 0 0.0486636C0.0283217 0.0104918 0.0282788 0.0202692 0.0816598 0Z" fill="#DE9E36" fill-rule="evenodd" transform="translate(5.779 0.954)" />
        <path d="M0 0.638326C0.0669188 0.517918 0.589488 0.146555 0.724307 0.0386996C0.787786 -0.0120983 0.817939 -0.00272241 0.89129 0.0102514C0.89129 0.0102514 0.866139 0.0242968 0.866139 0.0242968C0.861405 0.0439634 0.852471 0.0830687 0.837551 0.0964621C0.662707 0.253481 0.485493 0.416751 0.285499 0.541313C0.18856 0.601003 0.101227 0.624888 0 0.638326Z" fill="#DE9E36" fill-rule="evenodd" transform="translate(5.886 0.284)" />
        <path d="M0 0.579099C0.0241232 0.500611 0.197493 0.0493333 0.239127 0C0.288578 0.0146887 0.232738 0.0475478 0.298808 0.0882194C0.298808 0.0882194 0.337405 0.0684862 0.337405 0.0684862C0.24766 0.225863 0.139287 0.455252 0.0443592 0.591553C0.0443592 0.591553 0.00839806 0.588964 0.00839806 0.588964C0.00839806 0.588964 0 0.579099 0 0.579099Z" fill="#DE9E36" fill-rule="evenodd" transform="translate(9.149 3.46)" />
        <path d="M0.0103194 1.16211C0.0213979 1.15135 0.0327889 1.1409 0.0444483 1.13081C0.0839831 1.09648 0.131424 1.06617 0.17346 1.03496C1.30272 0.195859 2.7206 -0.176477 4.11244 0.0797761C4.19649 0.0952591 4.29447 0.109336 4.38019 0.116524C4.38019 0.116524 4.39619 0.134355 4.39619 0.134355C4.39619 0.134355 4.38704 0.160178 4.38704 0.160178C4.37274 0.188475 4.3257 0.2972 4.30652 0.311085C4.09603 0.463586 3.88389 0.606808 3.68269 0.7728C3.5837 0.854501 3.47323 0.946652 3.36173 1.00724C3.31986 1.02795 3.11419 1.02201 3.06006 1.01634C2.89184 1.03076 2.70492 1.04103 2.53936 1.07103C1.70874 1.22153 0.914162 1.61754 0.328471 2.23008C0.269415 2.29178 0.0867527 2.51943 0.0201021 2.523C-0.00415456 2.48791 -0.00174212 2.46085 0.00330603 2.41451C0.0182264 2.01596 -0.0155902 1.55446 0.0103194 1.16211Z" fill="#DE9E36" fill-rule="evenodd" transform="translate(1.827 0)" />
        <path d="M2.07483 0.0436548C2.06053 0.071951 2.01349 0.180677 1.99433 0.194561C1.78383 0.347063 1.57169 0.490285 1.37049 0.656277C1.27149 0.737978 1.16102 0.830126 1.04952 0.890712C1.00766 0.911427 0.801992 0.905488 0.747849 0.899819C0.543299 0.824101 0.528066 0.861022 0.326148 0.843208C0.223895 0.842093 0.103013 0.866112 0 0.882362C0.272543 0.741104 0.377521 0.686145 0.695315 0.688869C0.763129 0.689405 0.928233 0.683197 0.988184 0.656589C1.2224 0.552745 1.43633 0.306567 1.6588 0.168734C1.808 0.0763307 1.91919 0.0931619 2.06799 0C2.06799 0 2.08398 0.0178314 2.08398 0.0178314C2.08398 0.0178314 2.07483 0.0436548 2.07483 0.0436548Z" fill="#DE9E36" fill-rule="evenodd" transform="translate(4.139 0.117)" />
        <path d="M0 0.799554C0.243461 0.751918 0.597888 0.817545 0.815126 0.687849C0.993945 0.581058 1.59308 0.00695102 1.74867 0C1.73438 0.0282962 1.68734 0.137022 1.66818 0.150907C1.45768 0.303408 1.24554 0.44663 1.04434 0.612622C0.945343 0.694323 0.834868 0.786471 0.72337 0.847058C0.681512 0.867773 0.475844 0.861833 0.421701 0.856164C0.217149 0.780447 0.201916 0.817367 0 0.799554Z" fill="#DE9E36" fill-rule="evenodd" transform="translate(4.465 0.16)" />
        <path d="M2.31221 0.0391915C2.41522 0.0229407 2.5361 -0.00107872 2.63836 3.75509e-05C2.84027 0.0178512 2.85551 -0.0190709 3.06005 0.056648C2.89183 0.0710685 2.70492 0.081337 2.53936 0.111339C1.70874 0.261839 0.914162 0.657847 0.328471 1.27038C0.269415 1.33208 0.0867527 1.55973 0.0201021 1.5633C-0.00415456 1.52821 -0.00174212 1.50116 0.00330603 1.45481C0.0482006 1.42571 0.346742 1.10573 0.444932 1.023C1.03647 0.524625 1.56601 0.243356 2.31221 0.0391915Z" fill="#DE9E36" fill-rule="evenodd" transform="translate(1.827 0.96)" />
        <path d="M0.752717 0.0778611C0.770407 0.0427248 0.776571 0.0214295 0.809361 0C0.876325 0.015358 0.927519 0.310375 0.943464 0.38471C1.11635 1.16485 1.11326 1.97365 0.934396 2.75241C0.786714 3.37542 0.520601 3.9243 0.187353 4.46863C0.151392 4.4692 0.16667 4.47433 0.138885 4.45679C0.0888071 4.33 0.134506 2.8766 0.114449 2.64056C0.109847 2.58654 0.114493 2.48502 0.100108 2.41957C0.0794258 2.32568 -0.00728226 2.20121 0.000491142 2.11294C0.00343895 2.0795 0.0415888 1.9457 0.0526228 1.90155C0.128833 1.72461 0.0444031 1.43754 0.0934076 1.27932C0.160148 1.06373 0.370328 0.769691 0.477495 0.564542C0.56121 0.40431 0.658462 0.224612 0.752717 0.0778611Z" fill="#DE9E36" fill-rule="evenodd" transform="translate(9.094 3.557)" />
        <path d="M0.0526228 0C0.0744658 0.0133486 0.105201 0.0398688 0.126107 0.0454044C0.0541868 0.229523 0.123516 0.281222 0.175694 0.453063C0.187799 0.492975 0.18704 0.580707 0.188335 0.625307C0.206339 1.25847 0.167252 1.93873 0.187352 2.56708C0.151392 2.56766 0.16667 2.57279 0.138885 2.55525C0.0888071 2.42845 0.134506 0.97506 0.114449 0.739019C0.109847 0.684997 0.114493 0.583474 0.100108 0.518022C0.0794258 0.424134 -0.00728226 0.29966 0.000491142 0.211397C0.00343895 0.177957 0.0415888 0.0441542 0.0526228 0Z" fill="#DE9E36" fill-rule="evenodd" transform="translate(9.094 5.458)" />
        <path d="M0 1.82369C0.07621 1.64675 -0.00821877 1.35968 0.0407848 1.20146C0.107526 0.985866 0.317707 0.691828 0.424871 0.486682C0.508589 0.326449 0.605839 0.14675 0.700096 0C0.712828 0.0166087 0.742444 0.0430839 0.729044 0.0629063C0.59351 0.263231 0.472359 0.461814 0.365102 0.679194C0.303008 0.804962 0.209064 0.920595 0.167743 1.05864C0.0875111 1.29638 0.186952 1.6447 0.0734844 1.86909C0.0525789 1.86355 0.0218439 1.83703 0 1.82369Z" fill="#DE9E36" fill-rule="evenodd" transform="translate(9.146 3.635)" />
      </g>
    </g>
  </g>
</svg>